<!-- icon666.com - MILLIONS OF FREE VECTOR ICONS --><svg version="1.1" id="Layer_1" xmlns="http://www.w3.org/2000/svg" xmlns:xlink="http://www.w3.org/1999/xlink" x="0px" y="0px" viewBox="0 0 511.998 511.998" style="enable-background:new 0 0 511.998 511.998;" xml:space="preserve"><g><g><path d="M331.202,180.791l-10.8,10.802c9.151,9.15,14.191,21.316,14.19,34.257c0,12.941-5.039,25.109-14.19,34.261l10.802,10.801 c12.034-12.038,18.663-28.041,18.663-45.061C349.868,208.83,343.239,192.826,331.202,180.791z"></path></g></g><g><g><path d="M501.195,142.12l10.803-10.801c-29.547-29.546-73.062-36.8-109.483-21.787c4.985-12.034,7.597-25.053,7.597-38.472 c0-26.842-10.454-52.078-29.436-71.059l-10.8,10.801c16.097,16.096,24.961,37.496,24.961,60.258 c0,19.545-6.553,38.075-18.592,53.116c0.52-3.685,0.794-7.427,0.794-11.215c0-21.149-8.236-41.033-23.192-55.988l-10.8,10.802 c12.07,12.069,18.717,28.116,18.717,45.185c0,14.619-4.89,28.481-13.874,39.744c-37.579-31.766-94.041-29.97-129.453,5.442 c-47.053,47.051-96.829,105.656-136.564,160.789l12.393,8.931c11.245-15.603,23.306-31.487,35.882-47.304l61.488,61.489 l10.801-10.802l-62.659-62.659c28.712-35.302,59.638-69.823,89.46-99.643c31.378-31.377,82.432-31.376,113.808,0.001 c15.201,15.198,23.571,35.407,23.571,56.901c0,21.497-8.372,41.706-23.572,56.906c-7.191,7.19-14.605,14.401-22.192,21.596 l-86.929-86.928l-10.801,10.801l86.575,86.575c-4.086,3.781-8.212,7.552-12.379,11.311l-63.395-63.393l-10.801,10.802 l62.776,62.774c-46.036,40.596-95.781,78.962-141.073,108.417c-11.93,7.758-22.933,14.49-33.056,20.303l-40.804-40.804 l-10.802,10.801L97.87,472.72c-46.988,25.06-71.762,27.66-79.008,20.413c-3.051-3.051-8.531-14.022,6.423-49.927 c10.923-26.226,30.556-60.132,56.775-98.052l-12.565-8.687c-26.819,38.787-46.982,73.666-58.312,100.866 c-13.795,33.122-14.818,54.907-3.122,66.602c5.376,5.376,12.862,8.064,22.601,8.064c9.597,0,21.382-2.611,35.483-7.832 c23.536-8.714,52.81-24.407,87.009-46.648c65.779-42.777,140.805-104.072,200.694-163.962 c18.087-18.085,28.047-42.131,28.047-67.708c0-22.868-7.968-44.507-22.581-61.759c25.063-19.921,61.738-18.311,84.907,4.858 l10.8-10.801c-18.303-18.303-43.411-25.752-67.256-22.351C421.195,109.063,470.239,111.163,501.195,142.12z"></path></g></g></svg>