<!-- icon666.com - MILLIONS OF FREE VECTOR ICONS --><svg version="1.1" id="Capa_1" xmlns="http://www.w3.org/2000/svg" xmlns:xlink="http://www.w3.org/1999/xlink" x="0px" y="0px" viewBox="0 0 511.969 511.969" style="enable-background:new 0 0 511.969 511.969;" xml:space="preserve"><g><g><path d="M451.974,455.973H75.995c-2.211,0-4,1.789-4,3.999c0,2.211,1.79,4,4,4h375.977c2.211,0,4-1.789,4.001-4 C455.974,457.762,454.185,455.973,451.974,455.973z"></path></g></g><g><g><path d="M451.974,0H75.995c-2.211,0-4,1.789-4,4s1.79,4,4,4h375.977c2.211,0,4-1.789,4.001-4C455.974,1.789,454.185,0,451.974,0z"></path></g></g><g><g><path d="M75.995,503.969c-11.027,0-19.999-8.968-19.999-19.998c0-11.031,8.973-19.999,19.999-19.999c2.211,0,4-1.789,4-4 c0-2.21-1.789-3.999-4-3.999c-15.436,0-27.998,12.562-27.998,27.998s12.561,27.998,27.998,27.998c2.211,0,4-1.789,4-4 S78.206,503.969,75.995,503.969z"></path></g></g><g><g><path d="M75.995,487.971c-2.207,0-4-1.797-4-4s1.793-4,4-4c2.211,0,4-1.789,4-4s-1.789-4-4-4c-6.616,0-11.999,5.383-11.999,12 c0,6.616,5.383,11.999,11.999,11.999c2.211,0,4-1.789,4-4C79.995,489.76,78.206,487.971,75.995,487.971z"></path></g></g><g><g><path d="M75.995,0.001c-15.436,0-27.998,12.561-27.998,27.998c0,2.211,1.789,4,4,4c2.21,0,3.999-1.789,3.999-3.999 c0-11.031,8.973-19.999,19.999-19.999c2.211,0,4-1.79,4-4C79.995,1.79,78.206,0.001,75.995,0.001z"></path></g></g><g><g><path d="M51.997,23.999c-2.211,0-4,1.79-4,4v455.972c0,2.211,1.789,4,4,4c2.21,0,3.999-1.789,4-3.999V27.999 C55.997,25.788,54.208,23.999,51.997,23.999z"></path></g></g><g><g><path d="M451.973,0c-2.211,0-4,1.789-4,4s1.789,4,4,4c2.203,0,4,1.797,4,4c0,2.211,1.789,4,3.999,4c2.211,0,4-1.789,4-4.001 C463.971,5.383,458.589,0,451.973,0z"></path></g></g><g><g><path d="M459.971,447.973c-2.21,0-3.999,1.789-3.999,4c0,2.203-1.797,4-4,4c-2.211,0-4,1.789-4,3.999c0,2.211,1.789,4,4,4 c6.616,0,11.999-5.383,11.999-11.999C463.971,449.762,462.182,447.973,459.971,447.973z"></path></g></g><g><g><path d="M451.974,503.969H75.995c-2.211,0-4,1.789-4,4s1.79,4,4,4h375.977c2.211,0,4.001-1.789,4.001-4 S454.185,503.969,451.974,503.969z"></path></g></g><g><g><path d="M459.971,495.97c-2.21,0-3.999,1.789-3.999,4c0,2.202-1.797,3.999-4,3.999c-2.211,0-4,1.789-4,4s1.789,4,4,4 c6.616,0,11.999-5.382,11.999-11.999C463.971,497.759,462.182,495.97,459.971,495.97z"></path></g></g><g><g><path d="M459.971,8c-2.21,0-3.999,1.79-3.999,4v439.973c0,2.211,1.789,4,3.999,4c2.211,0,4-1.789,4-3.999V12 C463.971,9.789,462.182,8,459.971,8z"></path></g></g><g><g><path d="M459.971,463.972c-2.21,0-3.999,1.789-3.999,4v31.998c0,2.21,1.789,3.999,3.999,3.999c2.211,0,4-1.789,4-3.999v-31.998 C463.971,465.761,462.182,463.972,459.971,463.972z"></path></g></g><g><g><path d="M91.995,23.999c-2.211,0-4,1.79-4,4v407.975c0,2.21,1.79,3.999,4,3.999c2.211,0,4-1.789,4-3.998V27.999 C95.995,25.788,94.206,23.999,91.995,23.999z"></path></g></g><g><g><path d="M443.974,487.971H75.995c-2.211,0-4,1.789-4,3.999c0,2.211,1.79,4,4,4h367.977c2.211,0,4-1.789,4.001-4 C447.974,489.76,446.185,487.971,443.974,487.971z"></path></g></g><g><g><path d="M443.974,471.971H75.995c-2.211,0-4,1.789-4,4s1.79,4,4,4h367.977c2.211,0,4.001-1.789,4.001-4 S446.185,471.971,443.974,471.971z"></path></g></g><g><g><path d="M211.988,263.985c-28.67,0-51.997-23.327-51.997-51.997c0-28.67,23.327-51.997,51.997-51.997c2.211,0,4-1.789,4-4 s-1.79-4-4-4c-33.084,0-59.997,26.913-59.997,59.997s26.913,59.996,59.997,59.996c2.21,0,3.999-1.789,4-4 C215.988,265.774,214.198,263.985,211.988,263.985z"></path></g></g><g><g><path d="M339.979,151.991c-2.211,0-4,1.79-4,4c0,2.211,1.789,4,4,4c28.67,0,51.997,23.327,51.997,51.997 s-23.327,51.997-51.997,51.997c-2.211,0-4,1.789-4,3.999c0,2.211,1.789,4,4,4c33.084,0,59.996-26.912,59.996-59.996 C399.976,178.904,373.063,151.991,339.979,151.991z"></path></g></g><g><g><path d="M335.901,171.209c-0.086-0.438-9.226-43.216-59.918-43.216c-50.688,0-59.832,42.778-59.918,43.216 c-0.434,2.164,0.972,4.273,3.136,4.703c0.266,0.055,0.531,0.078,0.789,0.078c1.867,0,3.539-1.313,3.918-3.218 c0.074-0.367,7.867-36.779,52.075-36.779c43.997,0,51.77,35.286,52.075,36.794c0.446,2.148,2.476,3.555,4.718,3.117 C334.932,175.467,336.331,173.365,335.901,171.209z"></path></g></g><g><g><path d="M347.979,263.415c-2.211,0-4,1.789-4,3.999v64.566c0,2.211,1.789,4,4,4s4-1.789,4-4v-64.566 C351.979,265.204,350.19,263.415,347.979,263.415z"></path></g></g><g><g><path d="M203.987,263.282c-2.211,0-4,1.789-4,3.999v64.699c0,2.211,1.79,4,4,4c2.211,0,4-1.789,4-4v-64.699 C207.987,265.071,206.198,263.282,203.987,263.282z"></path></g></g><g><g><path d="M347.979,327.981H203.987c-2.211,0-4,1.789-4,3.999c0,2.211,1.79,4,4,4h143.991c2.211,0,4-1.789,4-4 C351.979,329.77,350.19,327.981,347.979,327.981z"></path></g></g><g><g><path d="M347.979,343.979H203.987c-2.211,0-4,1.789-4,4s1.79,4,4,4h143.991c2.211,0,4-1.789,4-4S350.19,343.979,347.979,343.979z"></path></g></g><g><g><path d="M347.979,335.98c-2.211,0-4,1.789-4,4v7.999c0,2.211,1.789,4,4,4s4-1.789,4-4v-7.999 C351.979,337.769,350.19,335.98,347.979,335.98z"></path></g></g><g><g><path d="M203.987,335.98c-2.211,0-4,1.789-4,4v7.999c0,2.211,1.79,4,4,4c2.211,0,4-1.789,4-4v-7.999 C207.987,337.769,206.198,335.98,203.987,335.98z"></path></g></g><g><g><path d="M219.987,339.988c-2.211,0-4,1.789-4,3.999v3.992c0,2.211,1.79,4,4,4c2.211,0,4-1.789,4-4v-3.992 C223.987,341.777,222.198,339.988,219.987,339.988z"></path></g></g><g><g><path d="M235.986,339.988c-2.211,0-4,1.789-4,3.999v3.992c0,2.211,1.79,4,4,4c2.211,0,4-1.789,4-4v-3.992 C239.986,341.777,238.197,339.988,235.986,339.988z"></path></g></g><g><g><path d="M251.984,339.988c-2.211,0-4,1.789-4,3.999v3.992c0,2.211,1.79,4,4,4c2.211,0,4-1.789,4-4v-3.992 C255.984,341.777,254.195,339.988,251.984,339.988z"></path></g></g><g><g><path d="M267.984,339.988c-2.21,0-3.999,1.789-3.999,3.999v3.992c0,2.211,1.789,4,3.999,4c2.211,0,4-1.789,4-4v-3.992 C271.984,341.777,270.195,339.988,267.984,339.988z"></path></g></g><g><g><path d="M283.982,339.988c-2.211,0-4,1.789-4,3.999v3.992c0,2.211,1.789,4,4,4c2.211,0,4-1.789,4-4v-3.992 C287.982,341.777,286.193,339.988,283.982,339.988z"></path></g></g><g><g><path d="M299.982,339.988c-2.21,0-3.999,1.789-3.999,3.999v3.992c0,2.211,1.789,4,3.999,4c2.211,0,4-1.789,4-4v-3.992 C303.982,341.777,302.193,339.988,299.982,339.988z"></path></g></g><g><g><path d="M315.981,339.988c-2.211,0-4,1.789-4,3.999v3.992c0,2.211,1.789,4,4,4s4-1.789,4-4v-3.992 C319.981,341.777,318.192,339.988,315.981,339.988z"></path></g></g><g><g><path d="M331.979,339.988c-2.21,0-3.999,1.789-3.999,3.999v3.992c0,2.211,1.789,4,3.999,4c2.211,0,4-1.789,4-4v-3.992 C335.979,341.777,334.19,339.988,331.979,339.988z"></path></g></g><g><g><path d="M411.974,47.998H139.992c-2.211,0-4,1.789-4,4v31.997c0,2.211,1.79,4,4,4h271.983c2.211,0,4-1.789,4-3.999V51.998 C415.974,49.787,414.185,47.998,411.974,47.998z M407.974,79.996H143.992V55.997h263.983V79.996z"></path></g></g><g><g><path d="M371.978,63.996H179.99c-2.211,0-4,1.789-4,4s1.789,4,4,4h191.988c2.21,0,3.999-1.789,3.999-4 S374.188,63.996,371.978,63.996z"></path></g></g><g><g><path d="M387.977,391.977H163.99c-2.211,0-4,1.789-4,3.999c0,2.211,1.789,4,4,4h223.986c2.211,0,4-1.789,4-4 C391.977,393.766,390.188,391.977,387.977,391.977z"></path></g></g><g><g><path d="M339.979,407.975H211.987c-2.211,0-4,1.789-4,4s1.789,4,4,4h127.992c2.21,0,3.999-1.789,3.999-4 S342.19,407.975,339.979,407.975z"></path></g></g></svg>