<!-- icon666.com - MILLIONS OF FREE VECTOR ICONS --><svg version="1.1" id="Layer_1" xmlns="http://www.w3.org/2000/svg" xmlns:xlink="http://www.w3.org/1999/xlink" x="0px" y="0px" viewBox="0 0 512 512" style="enable-background:new 0 0 512 512;" xml:space="preserve"><g><g><path d="M509.024,470.626c-1.439-4.226-6.029-6.484-10.258-5.048l-36.996,12.597l-52.258-150.814 c2.484-1.047,4.927-2.174,7.296-3.427c2.841-1.503,5.595-3.148,8.253-4.93c1.329-0.89,2.633-1.815,3.913-2.772 c12.791-9.572,23.034-22.404,29.477-37.338c10.308-23.895,10.023-51.176-0.739-74.761L400.859,75.452 c-1.693-3.832-6.033-5.74-10.001-4.385L256,116.987L121.142,71.067c-3.969-1.353-8.307,0.553-10.001,4.385L54.36,203.977 c-0.001,0.002-0.002,0.004-0.003,0.006l-0.027,0.063c-5.401,11.837-8.174,24.576-8.306,37.344 c-0.133,12.767,2.372,25.56,7.527,37.507C63,300.8,80.64,318.159,102.489,327.364L50.231,478.177L13.235,465.58 c-4.225-1.437-8.819,0.821-10.258,5.048c-1.44,4.226,0.82,8.819,5.047,10.258l44.555,15.17c0.004,0.001,0.008,0.003,0.012,0.005 c0.003,0.001,0.006,0.001,0.009,0.002l45.533,15.503c0.863,0.293,1.742,0.433,2.606,0.433c3.365,0,6.507-2.118,7.652-5.481 c1.44-4.226-0.82-8.819-5.047-10.258l-37.807-12.873l52.272-150.853c7.451,1.89,15.069,2.831,22.671,2.831 c14.57,0,29.079-3.44,42.235-10.203c0.877-0.451,1.748-0.916,2.613-1.397c5.687-3.16,10.978-6.892,15.808-11.106 c14.49-12.644,24.829-29.633,29.228-48.573l25.635-104.601l12.179,49.693c0.001,0.002,0.001,0.004,0.001,0.006l13.433,54.806 c5.888,25.348,22.312,47.134,45.059,59.773c13.781,7.657,29.185,11.568,44.667,11.597c0.06,0,0.121,0.003,0.181,0.003 c7.601,0,15.219-0.942,22.671-2.831l52.272,150.853l-37.805,12.873c-4.226,1.439-6.487,6.032-5.047,10.258 c1.146,3.363,4.287,5.481,7.652,5.481c0.863,0,1.743-0.14,2.606-0.433l45.533-15.504c0.003-0.001,0.006-0.001,0.009-0.002 c0.004-0.001,0.008-0.003,0.012-0.005l44.555-15.17C508.204,479.446,510.463,474.853,509.024,470.626z M229.625,199.177H128.872 c-4.465,0-8.084,3.618-8.084,8.084s3.62,8.084,8.084,8.084h96.791l-11.026,44.987c-4.25,18.292-15.152,34.336-30.379,45.045 c-2.175,1.53-4.439,2.951-6.784,4.253c-11.725,6.515-24.877,9.744-38.052,9.561c-7.905-0.11-15.819-1.449-23.438-4.043h-0.001 l-0.624-0.212c-0.003-0.001-0.005-0.002-0.009-0.003c-0.003-0.001-0.008-0.002-0.011-0.003l-1.599-0.544 c-2.54-0.864-5.02-1.86-7.433-2.978c-3.178-1.472-6.224-3.177-9.148-5.057c-0.863-0.555-1.714-1.129-2.554-1.717 c-4.557-3.198-8.748-6.882-12.5-10.987c-5.658-6.19-10.329-13.314-13.712-21.156c-0.025-0.057-0.045-0.116-0.07-0.174 c-0.483-1.126-0.938-2.263-1.364-3.406c-0.155-0.418-0.29-0.842-0.438-1.261c-0.278-0.79-0.557-1.581-0.809-2.379 c-0.156-0.495-0.292-0.995-0.438-1.493c-0.215-0.731-0.429-1.462-0.621-2.198c-0.137-0.527-0.258-1.056-0.384-1.586 c-0.169-0.714-0.337-1.427-0.486-2.144c-0.113-0.544-0.212-1.091-0.314-1.637c-0.13-0.707-0.255-1.415-0.366-2.126 c-0.086-0.554-0.163-1.109-0.236-1.664c-0.094-0.709-0.18-1.419-0.254-2.13c-0.058-0.556-0.11-1.111-0.156-1.669 c-0.059-0.718-0.106-1.436-0.144-2.155c-0.029-0.55-0.057-1.099-0.075-1.649c-0.024-0.733-0.03-1.467-0.033-2.201 c-0.002-0.536-0.006-1.071,0.003-1.607c0.014-0.76,0.047-1.519,0.084-2.278c0.024-0.508,0.042-1.016,0.077-1.524 c0.055-0.813,0.135-1.624,0.217-2.435c0.045-0.453,0.08-0.905,0.133-1.357c0.112-0.955,0.254-1.907,0.403-2.857 c0.047-0.306,0.083-0.613,0.135-0.918c0.215-1.269,0.459-2.533,0.738-3.792c0.023-0.102,0.052-0.203,0.074-0.305 c0.258-1.143,0.54-2.282,0.852-3.415c0.106-0.386,0.231-0.766,0.343-1.151c0.247-0.845,0.496-1.69,0.773-2.529 c0.152-0.46,0.321-0.916,0.483-1.374c0.204-0.579,0.413-1.157,0.631-1.732h29.387c4.465,0,8.084-3.618,8.084-8.084 s-3.62-8.084-8.084-8.084h-22.38l48.783-110.418l123.446,42.033L229.625,199.177z M398.259,314.386l-1.603,0.545 c-0.002,0.001-0.005,0.001-0.008,0.002s-0.004,0.001-0.005,0.002l-0.627,0.213c-20.316,6.918-42.729,4.908-61.489-5.518 c-18.761-10.424-32.307-28.393-37.186-49.393l-11.002-44.892h88.865c4.465,0,8.084-3.618,8.084-8.084s-3.62-8.084-8.084-8.084 h-92.827l-16.76-68.385L389.064,88.76l48.784,110.418h-30.306c-4.465,0-8.084,3.618-8.084,8.084c0,4.466,3.62,8.084,8.084,8.084 h37.317c0.214,0.565,0.418,1.133,0.619,1.702c0.171,0.486,0.351,0.969,0.512,1.457c0.263,0.799,0.499,1.604,0.735,2.409 c0.123,0.42,0.26,0.838,0.375,1.26c0.31,1.131,0.591,2.269,0.848,3.41c0.023,0.1,0.052,0.198,0.073,0.299 c0.275,1.243,0.515,2.492,0.727,3.745c0.068,0.4,0.115,0.803,0.177,1.204c0.13,0.855,0.26,1.71,0.361,2.569 c0.058,0.493,0.096,0.986,0.144,1.479c0.075,0.77,0.152,1.539,0.204,2.311c0.036,0.53,0.055,1.063,0.08,1.594 c0.035,0.736,0.067,1.472,0.08,2.209c0.01,0.55,0.005,1.098,0.003,1.648c-0.003,0.721-0.01,1.441-0.033,2.162 c-0.018,0.557-0.046,1.115-0.077,1.672c-0.039,0.712-0.085,1.425-0.143,2.136c-0.046,0.558-0.098,1.117-0.156,1.675 c-0.074,0.711-0.161,1.422-0.254,2.13c-0.073,0.554-0.15,1.107-0.236,1.66c-0.111,0.714-0.237,1.426-0.369,2.136 c-0.1,0.543-0.199,1.085-0.312,1.627c-0.15,0.723-0.319,1.442-0.49,2.161c-0.125,0.524-0.244,1.048-0.379,1.569 c-0.194,0.746-0.412,1.487-0.63,2.229c-0.142,0.487-0.276,0.976-0.428,1.461c-0.258,0.816-0.542,1.625-0.828,2.435 c-0.142,0.402-0.271,0.807-0.419,1.208c-0.448,1.205-0.925,2.403-1.437,3.589c-0.6,1.391-1.25,2.753-1.928,4.098 c-6.298,12.488-15.917,22.94-27.659,30.281c-1.554,0.972-3.132,1.909-4.758,2.769 C405.744,311.498,402.068,313.089,398.259,314.386z"></path></g></g><g><g><path d="M256,0c-4.465,0-8.084,3.618-8.084,8.084V38.9c0,4.465,3.62,8.084,8.084,8.084c4.465,0,8.084-3.62,8.084-8.084V8.084 C264.084,3.618,260.465,0,256,0z"></path></g></g><g><g><path d="M325.43,27.244c-2.892-3.403-7.995-3.813-11.395-0.923l-25.667,21.827c-3.401,2.893-3.814,7.995-0.922,11.395 c1.601,1.881,3.875,2.848,6.163,2.848c1.852,0,3.712-0.633,5.233-1.925l25.667-21.827 C327.911,35.746,328.323,30.644,325.43,27.244z"></path></g></g><g><g><path d="M223.63,48.148l-25.667-21.827c-3.401-2.89-8.502-2.479-11.395,0.923c-2.892,3.401-2.479,8.502,0.922,11.395 l25.667,21.827c1.521,1.292,3.382,1.925,5.233,1.925c2.288,0,4.563-0.967,6.162-2.848C227.445,56.143,227.032,51.04,223.63,48.148 z"></path></g></g></svg>